<svg id="visual" viewBox="0 0 1280 768" width="1280" height="768" xmlns="http://www.w3.org/2000/svg" xmlns:xlink="http://www.w3.org/1999/xlink" version="1.1"><rect x="0" y="0" width="1280" height="768" fill="#001220"></rect><path d="M0 545L30.5 546.5C61 548 122 551 183 552.3C244 553.7 305 553.3 366 536.3C427 519.3 488 485.7 548.8 470.5C609.7 455.3 670.3 458.7 731.2 460.7C792 462.7 853 463.3 914 471.2C975 479 1036 494 1097 507.2C1158 520.3 1219 531.7 1249.5 537.3L1280 543L1280 769L1249.5 769C1219 769 1158 769 1097 769C1036 769 975 769 914 769C853 769 792 769 731.2 769C670.3 769 609.7 769 548.8 769C488 769 427 769 366 769C305 769 244 769 183 769C122 769 61 769 30.5 769L0 769Z" fill="#001220"></path><path d="M0 563L30.5 565.5C61 568 122 573 183 577C244 581 305 584 366 572.8C427 561.7 488 536.3 548.8 540C609.7 543.7 670.3 576.3 731.2 581.2C792 586 853 563 914 559.3C975 555.7 1036 571.3 1097 573C1158 574.7 1219 562.3 1249.5 556.2L1280 550L1280 769L1249.5 769C1219 769 1158 769 1097 769C1036 769 975 769 914 769C853 769 792 769 731.2 769C670.3 769 609.7 769 548.8 769C488 769 427 769 366 769C305 769 244 769 183 769C122 769 61 769 30.5 769L0 769Z" fill="#3a4551"></path><path d="M0 562L30.5 566.5C61 571 122 580 183 579.5C244 579 305 569 366 576.3C427 583.7 488 608.3 548.8 621.8C609.7 635.3 670.3 637.7 731.2 626.8C792 616 853 592 914 587.5C975 583 1036 598 1097 612.3C1158 626.7 1219 640.3 1249.5 647.2L1280 654L1280 769L1249.5 769C1219 769 1158 769 1097 769C1036 769 975 769 914 769C853 769 792 769 731.2 769C670.3 769 609.7 769 548.8 769C488 769 427 769 366 769C305 769 244 769 183 769C122 769 61 769 30.5 769L0 769Z" fill="#777e87"></path><path d="M0 627L30.5 630.7C61 634.3 122 641.7 183 650.2C244 658.7 305 668.3 366 664.5C427 660.7 488 643.3 548.8 645.5C609.7 647.7 670.3 669.3 731.2 672.3C792 675.3 853 659.7 914 652.3C975 645 1036 646 1097 641.8C1158 637.7 1219 628.3 1249.5 623.7L1280 619L1280 769L1249.5 769C1219 769 1158 769 1097 769C1036 769 975 769 914 769C853 769 792 769 731.2 769C670.3 769 609.7 769 548.8 769C488 769 427 769 366 769C305 769 244 769 183 769C122 769 61 769 30.5 769L0 769Z" fill="#b9bcc1"></path><path d="M0 722L30.5 723C61 724 122 726 183 719C244 712 305 696 366 687.3C427 678.7 488 677.3 548.8 677C609.7 676.7 670.3 677.3 731.2 683.2C792 689 853 700 914 706.3C975 712.7 1036 714.3 1097 711.3C1158 708.3 1219 700.7 1249.5 696.8L1280 693L1280 769L1249.5 769C1219 769 1158 769 1097 769C1036 769 975 769 914 769C853 769 792 769 731.2 769C670.3 769 609.7 769 548.8 769C488 769 427 769 366 769C305 769 244 769 183 769C122 769 61 769 30.5 769L0 769Z" fill="#ffffff"></path></svg>