<svg id="visual" viewBox="0 0 1280 768" width="1280" height="768" xmlns="http://www.w3.org/2000/svg" xmlns:xlink="http://www.w3.org/1999/xlink" version="1.1"><rect x="0" y="0" width="1280" height="768" fill="#ffffff"></rect><path d="M0 184L53.3 182C106.7 180 213.3 176 320 180.5C426.7 185 533.3 198 640 201.7C746.7 205.3 853.3 199.7 960 194C1066.7 188.3 1173.3 182.7 1226.7 179.8L1280 177L1280 0L1226.7 0C1173.3 0 1066.7 0 960 0C853.3 0 746.7 0 640 0C533.3 0 426.7 0 320 0C213.3 0 106.7 0 53.3 0L0 0Z" fill="#ffffff"></path><path d="M0 196L53.3 190.2C106.7 184.3 213.3 172.7 320 169.3C426.7 166 533.3 171 640 174.5C746.7 178 853.3 180 960 177.8C1066.7 175.7 1173.3 169.3 1226.7 166.2L1280 163L1280 0L1226.7 0C1173.3 0 1066.7 0 960 0C853.3 0 746.7 0 640 0C533.3 0 426.7 0 320 0C213.3 0 106.7 0 53.3 0L0 0Z" fill="#a4a2ad"></path><path d="M0 104L53.3 101.2C106.7 98.3 213.3 92.7 320 88.7C426.7 84.7 533.3 82.3 640 87.2C746.7 92 853.3 104 960 110.7C1066.7 117.3 1173.3 118.7 1226.7 119.3L1280 120L1280 0L1226.7 0C1173.3 0 1066.7 0 960 0C853.3 0 746.7 0 640 0C533.3 0 426.7 0 320 0C213.3 0 106.7 0 53.3 0L0 0Z" fill="#524e62"></path><path d="M0 48L53.3 54.7C106.7 61.3 213.3 74.7 320 72C426.7 69.3 533.3 50.7 640 48.3C746.7 46 853.3 60 960 60.2C1066.7 60.3 1173.3 46.7 1226.7 39.8L1280 33L1280 0L1226.7 0C1173.3 0 1066.7 0 960 0C853.3 0 746.7 0 640 0C533.3 0 426.7 0 320 0C213.3 0 106.7 0 53.3 0L0 0Z" fill="#080020"></path></svg>